<svg id="图层_1" data-name="图层 1" xmlns="http://www.w3.org/2000/svg" viewBox="0 0 32 32"><defs><style>.cls-1{fill:#e4e8ee;}.cls-2{fill:#b7c3d5;}.cls-3{fill:#9ca8ba;}</style></defs><title>跳页右</title><circle class="cls-1" cx="16" cy="16" r="15.5"/><path class="cls-2" d="M16,1A15,15,0,1,0,31,16,15,15,0,0,0,16,1m0-1A16,16,0,1,1,0,16,16,16,0,0,1,16,0Z"/><polygon class="cls-3" points="12.81 8.23 13.52 7.52 21.29 15.29 21.29 15.29 22 15.99 21.99 16 22 16.01 21.29 16.71 21.29 16.71 13.52 24.48 12.81 23.77 20.58 16 12.81 8.23"/></svg>