<svg id="图层_1" data-name="图层 1" xmlns="http://www.w3.org/2000/svg" viewBox="0 0 15 15"><defs><style>.cls-1{fill:#47b55c;}</style></defs><title>保存</title><path class="cls-1" d="M11,15.5H5A4.51,4.51,0,0,1,.5,11V5A4.51,4.51,0,0,1,5,.5h6A4.51,4.51,0,0,1,15.5,5v6A4.51,4.51,0,0,1,11,15.5ZM5,1.5A3.5,3.5,0,0,0,1.5,5v6A3.5,3.5,0,0,0,5,14.5h6A3.5,3.5,0,0,0,14.5,11V5A3.5,3.5,0,0,0,11,1.5Z" transform="translate(-0.5 -0.5)"/><path class="cls-1" d="M11.5,7.5h-7a1,1,0,0,1-1-1V1h1V6.5h7V1h1V6.5A1,1,0,0,1,11.5,7.5Z" transform="translate(-0.5 -0.5)"/><rect class="cls-1" x="9.03" y="2" width="1" height="3" rx="0.5" ry="0.5"/></svg>