<svg id="图层_1" data-name="图层 1" xmlns="http://www.w3.org/2000/svg" viewBox="0 0 15.3 15.3"><defs><style>.cls-1{fill:#47b55c;}</style></defs><title>修改</title><path class="cls-1" d="M10.5,16h-6A4.51,4.51,0,0,1,0,11.5v-6A4.51,4.51,0,0,1,4.5,1h6a.5.5,0,0,1,0,1h-6A3.5,3.5,0,0,0,1,5.5v6A3.5,3.5,0,0,0,4.5,15h6A3.5,3.5,0,0,0,14,11.5v-6a.5.5,0,0,1,1,0v6A4.51,4.51,0,0,1,10.5,16Z" transform="translate(0 -0.7)"/><rect class="cls-1" x="10.77" y="-0.77" width="1" height="11" rx="0.5" ry="0.5" transform="translate(6.65 -7.28) rotate(45)"/></svg>