<svg id="图层_1" data-name="图层 1" xmlns="http://www.w3.org/2000/svg" viewBox="0 0 16 16"><defs><style>.cls-1{fill:#4d6c9b;}</style></defs><title>日期选择</title><path class="cls-1" d="M12,2a3,3,0,0,1,3,3v7a3,3,0,0,1-3,3H4a3,3,0,0,1-3-3V5A3,3,0,0,1,4,2h8m0-1H4A4,4,0,0,0,0,5v7a4,4,0,0,0,4,4h8a4,4,0,0,0,4-4V5a4,4,0,0,0-4-4Z" transform="translate(0)"/><rect class="cls-1" y="5" width="16" height="1"/><rect class="cls-1" x="5" width="1" height="3"/><rect class="cls-1" x="4" y="7" width="1" height="3" transform="translate(-4 13) rotate(-90)"/><rect class="cls-1" x="8" y="7" width="1" height="3" transform="translate(0 17) rotate(-90)"/><rect class="cls-1" x="12" y="7" width="1" height="3" transform="translate(4 21) rotate(-90)"/><rect class="cls-1" x="4" y="10" width="1" height="3" transform="translate(-7 16) rotate(-90)"/><rect class="cls-1" x="8" y="10" width="1" height="3" transform="translate(-3 20) rotate(-90)"/><rect class="cls-1" x="12" y="10" width="1" height="3" transform="translate(1 24) rotate(-90)"/><rect class="cls-1" x="10" width="1" height="3"/></svg>