<svg id="图层_1" data-name="图层 1" xmlns="http://www.w3.org/2000/svg" viewBox="0 0 32 32"><defs><style>.cls-1{fill:#e4e8ee;}.cls-2{fill:#b7c3d5;}.cls-3{fill:#9ca8ba;}</style></defs><title>跳页左</title><circle class="cls-1" cx="16" cy="16" r="15.5"/><path class="cls-2" d="M16,1A15,15,0,1,1,1,16,15,15,0,0,1,16,1m0-1A16,16,0,1,0,32,16,16,16,0,0,0,16,0Z"/><polygon class="cls-3" points="19.19 8.23 18.48 7.52 10.71 15.29 10.71 15.29 10 15.99 10.01 16 10 16.01 10.71 16.71 10.71 16.71 18.48 24.48 19.19 23.77 11.42 16 19.19 8.23"/></svg>